# Blender v2.74 (sub 0) OBJ File: ''
# www.blender.org
mtllib pyramid-simple-design.mtl
o Box
v 2.849823 19.752998 -0.053141
v 12.524599 0.228400 10.403000
v 12.524599 0.228400 -10.403000
v 2.866044 19.752998 0.015062
v 2.843574 19.752998 -0.112102
v -7.000000 0.228400 -10.403000
v -7.000000 0.228400 10.403000
v 2.884696 19.752998 0.000229
v 2.843574 19.752998 -0.112102
v 2.884696 19.752998 0.000229
v 2.849823 19.752998 -0.053141
v 2.866044 19.752998 0.015062
v -7.000000 0.228400 10.403000
v -7.000000 0.228400 -10.403000
v 12.524599 0.228400 -10.403000
v 12.524599 0.228400 10.403000
v 2.884696 19.752998 0.000229
v -7.000000 0.228400 10.403000
v 12.524599 0.228400 10.403000
v 2.849823 19.752998 -0.053141
v 2.866044 19.752998 0.015062
v 12.524599 0.228400 -10.403000
v -7.000000 0.228400 -10.403000
v 2.843574 19.752998 -0.112102
vt 0.000000 1.000000
vt 0.000000 0.000000
vt 1.000000 0.000000
vt 1.000000 1.000000
vn 0.896200 0.443700 0.000700
vn -0.892600 0.450900 0.001800
vn 0.000000 -1.000000 -0.000000
vn 0.002400 0.471200 0.882000
vn 0.005700 0.468500 -0.883400
usemtl architecture_jpg_material
s 1
f 1/1/1 2/2/1 3/3/1 4/4/1
f 5/1/2 6/2/2 7/3/2 8/4/2
f 9/1/3 10/2/3 11/3/3 12/4/3
f 13/1/3 14/2/3 15/3/3 16/4/3
f 17/1/4 18/2/4 19/3/4 20/4/4
f 21/1/5 22/2/5 23/3/5 24/4/5
